<?xml version="1.0" encoding="UTF-8" standalone="no"?>
<!-- Created with Inkscape (http://www.inkscape.org/) -->

<svg
   xmlns:dc="http://purl.org/dc/elements/1.1/"
   xmlns:cc="http://creativecommons.org/ns#"
   xmlns:rdf="http://www.w3.org/1999/02/22-rdf-syntax-ns#"
   xmlns:svg="http://www.w3.org/2000/svg"
   xmlns="http://www.w3.org/2000/svg"
   xmlns:sodipodi="http://sodipodi.sourceforge.net/DTD/sodipodi-0.dtd"
   xmlns:inkscape="http://www.inkscape.org/namespaces/inkscape"
   width="210mm"
   height="297mm"
   viewBox="0 0 210 297"
   version="1.1"
   id="svg8"
   inkscape:version="0.92.4 (5da689c313, 2019-01-14)"
   sodipodi:docname="mariktechy.svg">
  <defs
     id="defs2" />
  <sodipodi:namedview
     id="base"
     pagecolor="#ffffff"
     bordercolor="#666666"
     borderopacity="1.0"
     inkscape:pageopacity="0.0"
     inkscape:pageshadow="2"
     inkscape:zoom="1.4"
     inkscape:cx="286.67871"
     inkscape:cy="593.7252"
     inkscape:document-units="mm"
     inkscape:current-layer="layer1"
     showgrid="false"
     inkscape:window-width="1920"
     inkscape:window-height="1001"
     inkscape:window-x="-9"
     inkscape:window-y="-9"
     inkscape:window-maximized="1" />
  <metadata
     id="metadata5">
    <rdf:RDF>
      <cc:Work
         rdf:about="">
        <dc:format>image/svg+xml</dc:format>
        <dc:type
           rdf:resource="http://purl.org/dc/dcmitype/StillImage" />
        <dc:title></dc:title>
      </cc:Work>
    </rdf:RDF>
  </metadata>
  <g
     inkscape:label="Layer 1"
     inkscape:groupmode="layer"
     id="layer1">
    <g
       id="g3756">
      <path
         style="fill:#a19369;stroke-width:0.10549112"
         d="m 128.83123,177.67614 c -2.46186,-0.44668 -4.22306,-1.49265 -5.75591,-3.41838 -1.26726,-1.59205 -1.7754,-3.04929 -1.78827,-5.12838 -0.009,-1.51283 0.16193,-2.26719 0.78896,-3.47445 0.98725,-1.90079 2.87639,-3.30575 5.35603,-3.98332 0.79867,-0.21823 1.11072,-0.24246 3.05219,-0.23702 2.04134,0.006 2.21459,0.022 3.09054,0.29106 1.1395,0.34997 1.93765,0.74574 2.76492,1.37099 1.0114,0.76442 2.1405,2.21797 2.57073,3.30947 0.48524,1.23106 0.56758,3.25084 0.15504,3.80342 l -0.21742,0.29124 -5.98859,0.0272 -5.9886,0.0272 0.0672,0.42001 c 0.21459,1.34198 0.86267,2.23616 1.90277,2.6253 1.54404,0.5777 3.09399,0.54223 4.93646,-0.113 0.6547,-0.23282 1.46472,-0.52062 1.80004,-0.63954 0.93954,-0.33322 1.20257,-0.2118 2.4945,1.15151 0.5845,0.6168 1.06273,1.17982 1.06273,1.25118 0,0.22663 -1.0843,0.97671 -2.11559,1.46346 -1.06988,0.50497 -2.1902,0.82605 -3.50945,1.00579 -1.10668,0.15079 -3.74168,0.12609 -4.67824,-0.0438 z m 5.30645,-10.77928 c -0.10787,-0.78694 -0.35009,-1.09939 -1.17244,-1.51241 -0.70089,-0.35202 -0.78689,-0.36922 -1.84543,-0.36922 -1.29692,0 -2.00777,0.19096 -2.76912,0.74388 -0.42433,0.30816 -1.13224,1.27467 -1.13569,1.55055 -0.001,0.0435 1.57201,0.0791 3.49455,0.0791 h 3.49555 z m 14.077,10.82724 c -2.46725,-0.51789 -4.3921,-1.98542 -5.76576,-4.39589 -0.71053,-1.24683 -0.93468,-2.21551 -0.93496,-4.04059 0,-1.77473 0.13967,-2.44577 0.781,-3.74494 0.89217,-1.8073 2.28599,-2.99717 4.32219,-3.68973 1.17595,-0.39997 2.13575,-0.50838 3.9795,-0.44952 2.25438,0.072 3.38192,0.41014 5.04138,1.51196 0.48188,0.31995 1.32448,1.1868 1.32448,1.3626 0,0.14168 -1.43935,1.65767 -1.70899,1.80002 -0.44859,0.2368 -0.98097,0.18006 -1.69563,-0.1807 -1.05866,-0.5344 -1.72681,-0.72384 -2.553,-0.72384 -1.38714,0 -2.40689,0.49158 -3.0179,1.45483 -1.09755,1.7303 -1.02667,5.29968 0.13144,6.61869 0.44623,0.50822 1.26461,0.78773 2.30645,0.78773 0.98954,0 1.59003,-0.19782 2.60213,-0.85724 0.56034,-0.36506 0.78111,-0.44918 1.17848,-0.44899 0.63194,0 0.81225,0.1277 2.01499,1.4238 l 0.99859,1.07609 -0.57662,0.51841 c -0.70608,0.6348 -2.38206,1.48102 -3.53037,1.78251 -0.65756,0.17265 -1.23997,0.22945 -2.63728,0.25719 -0.98634,0.0196 -2.0034,-0.009 -2.26012,-0.0624 z m -37.14081,-0.41915 c 0,-0.26725 -0.041,-0.31648 -0.26373,-0.31648 h -0.26373 v -8.17399 -8.17399 l -3.13836,-0.0279 -3.13836,-0.028 -0.0331,-0.34284 c -0.0275,-0.28499 -0.0769,-0.34285 -0.29271,-0.34285 h -0.25965 l 0.029,-1.71423 0.029,-1.71423 h 9.44146 9.44146 l 0.0327,0.2836 c 0.0229,0.19851 0.10204,0.29345 0.26373,0.31647 0.22697,0.0323 0.23097,0.063 0.23097,1.77348 v 1.7406 l -3.40209,0.0278 -3.40209,0.0278 v 8.49058 8.49057 h -2.63727 -2.63728 z m 49.33468,0.24614 c -0.0387,-0.0387 -0.0703,-0.18109 -0.0703,-0.31648 0,-0.17581 -0.0603,-0.24614 -0.21098,-0.24614 -0.20965,0 -0.21098,-0.0703 -0.21098,-11.13122 v -11.13123 l 2.50541,0.0283 2.50542,0.0283 0.0327,0.2836 c 0.0229,0.19851 0.10204,0.29346 0.26373,0.31647 l 0.23097,0.0329 0.0277,3.59217 0.0277,3.59217 0.81619,-0.40187 c 1.24642,-0.61368 2.22937,-0.82223 3.87544,-0.82223 2.34977,0 3.72096,0.49792 5.0444,1.83178 0.85986,0.86664 1.35334,1.58527 1.67599,2.44062 0.23554,0.62444 0.23918,0.70913 0.27107,6.30309 l 0.0323,5.67015 h -2.5361 -2.53609 V 177.305 c 0,-0.26605 -0.0414,-0.31648 -0.26006,-0.31648 h -0.26004 l -0.0301,-5.37242 c -0.0295,-5.27175 -0.0342,-5.378 -0.2519,-5.67015 -0.32757,-0.4396 -0.99448,-0.6547 -2.0462,-0.65995 -1.27067,-0.006 -2.21228,0.27036 -3.26501,0.95955 l -0.53267,0.34872 v 5.5136 5.5136 h -2.5142 c -1.38282,0 -2.54586,-0.0316 -2.58454,-0.0703 z M 10.221423,146.88568 c -0.3207214,-0.0691 -0.7994024,-0.25238 -1.0637364,-0.40729 -0.582894,-0.3416 -1.254141,-1.06138 -1.254141,-1.34483 0,-0.11383 -0.09301,-0.25675 -0.206694,-0.31759 -0.113683,-0.0608 -0.329957,-0.27222 -0.480611,-0.46974 l -0.2739165,-0.35912 0.3351565,-0.668 c 0.379368,-0.75612 0.967373,-1.62719 5.0084104,-7.41943 1.578661,-2.26279 3.299638,-4.73128 3.824394,-5.48554 2.167532,-3.11553 5.660547,-8.86233 8.431709,-13.87209 9.216268,-16.661331 12.329932,-22.247651 12.51059,-22.445635 0.341693,-0.37446 2.78608,-1.54941 3.556947,-1.70974 0.454693,-0.0946 0.797506,-0.24165 1.028695,-0.44138 0.787881,-0.68064 2.332971,-1.20622 3.880886,-1.32012 0.84596,-0.0622 0.85982,-0.0592 1.984094,0.44268 1.001431,0.447 1.169918,0.56135 1.458925,0.99016 0.179709,0.26664 0.449906,0.60939 0.600439,0.76165 0.678327,0.68615 1.756779,2.949174 2.189985,4.595454 0.229095,0.87062 0.280738,1.34021 0.324822,2.953591 0.05983,2.18981 -0.02222,3.17705 -0.607737,7.31209 -0.225929,1.59555 -0.465842,3.5656 -0.533141,4.37788 -0.09006,1.08703 -0.171451,1.54773 -0.308322,1.74529 -0.102278,0.14763 -0.221507,0.57487 -0.264955,0.94942 -0.04345,0.37456 -0.163808,1.20319 -0.267468,1.84141 -0.10366,0.63822 -0.180272,1.16876 -0.170249,1.17897 0.01002,0.0102 0.919729,-0.93358 2.021569,-2.09733 7.598191,-8.02506 17.115436,-17.000011 21.608207,-20.376941 1.690232,-1.270454 2.591453,-1.796064 3.35369,-1.955984 0.604095,-0.12673 1.656232,-0.62795 3.473697,-1.65481 0.554883,-0.31351 1.062569,-0.57002 1.128185,-0.57002 0.06562,0 0.488783,-0.16838 0.940369,-0.37417 0.709723,-0.32343 0.853761,-0.35669 1.062043,-0.24522 0.211878,0.1134 0.278011,0.0935 0.548037,-0.16524 0.195009,-0.18684 0.531411,-0.34645 0.921769,-0.43735 0.829224,-0.19311 1.123957,-0.0643 1.329927,0.58099 0.11066,0.34675 0.239465,0.51907 0.476303,0.63725 0.415582,0.20737 0.493183,0.38657 0.755095,1.74382 0.298731,1.547944 0.287485,1.767654 -0.107411,2.099944 -0.177837,0.14964 -0.293054,0.32107 -0.256038,0.38097 0.06705,0.10848 -0.106229,0.44901 -0.82129,1.61403 -0.207006,0.33726 -0.409148,0.81197 -0.449203,1.05491 -0.04005,0.24294 -0.118846,0.49877 -0.175104,0.56851 -0.05625,0.0697 -0.0747,0.21371 -0.04098,0.31993 0.04439,0.13986 -0.11277,0.3654 -0.569662,0.81752 -0.347034,0.343411 -0.590708,0.650411 -0.541507,0.682231 0.04919,0.0318 0.121072,0.15927 0.159724,0.28324 0.05867,0.18819 -0.01298,0.27344 -0.434117,0.51652 -0.277421,0.16012 -0.522698,0.30644 -0.545062,0.32514 -0.02236,0.0187 0.03455,0.1488 0.126462,0.28908 0.162953,0.2487 0.154524,0.26569 -0.337845,0.68087 -0.433632,0.36564 -0.498488,0.46998 -0.459077,0.73852 0.0432,0.29435 0.01431,0.3232 -0.491789,0.4913 -0.502981,0.16707 -0.676323,0.37998 -0.432197,0.53086 0.240889,0.14888 0.0745,0.56114 -0.475185,1.17731 -0.462451,0.5184 -0.579725,0.72269 -0.579725,1.00989 0,0.30598 -0.08171,0.42649 -0.544346,0.80283 -0.843633,0.68626 -1.173483,1.19953 -1.222378,1.90206 -0.02271,0.3264 -0.08982,0.72058 -0.149112,0.87597 -0.107812,0.28252 -0.349566,0.44986 -0.508246,0.35179 -0.04633,-0.0286 -0.211035,0.11418 -0.366001,0.31736 -0.262694,0.34442 -0.269899,0.3813 -0.106409,0.54479 0.260236,0.26023 0.131431,0.86143 -0.260226,1.21455 -0.316462,0.28534 -1.203664,0.61196 -1.662276,0.61196 -0.317022,0 -0.310292,0.15524 0.01915,0.44168 0.14505,0.12612 0.262683,0.32756 0.261407,0.44764 -0.007,0.65741 -1.030174,1.95894 -1.540023,1.95894 -0.194135,0 -0.251006,0.057 -0.251006,0.25142 0,0.1625 0.07443,0.27089 0.210455,0.30646 0.115745,0.0303 0.241121,0.13498 0.278623,0.2327 0.07839,0.20428 -0.419232,1.31063 -0.74674,1.66022 -0.119373,0.12742 -0.264519,0.42325 -0.322539,0.6574 -0.09687,0.39096 -0.142518,0.4335 -0.558944,0.52092 l -0.453465,0.0952 0.313752,0.32678 0.313762,0.32678 -0.515398,0.83196 c -0.29682,0.47913 -0.659098,0.91936 -0.854235,1.03802 l -0.338827,0.20606 0.334618,0.21186 c 0.184029,0.11652 0.334607,0.29787 0.334607,0.40299 0,0.10511 -0.240899,0.39867 -0.535346,0.65235 -0.434571,0.3744 -0.555074,0.55374 -0.640173,0.95277 -0.09572,0.44881 -0.133974,0.49437 -0.439951,0.52407 l -0.335114,0.0325 0.558924,0.35744 c 0.469615,0.30032 0.553818,0.40146 0.52696,0.63294 -0.02527,0.2177 -0.110692,0.29497 -0.407069,0.36823 -0.249656,0.0617 -0.435668,0.19826 -0.556213,0.4083 -0.150282,0.26184 -0.230319,0.30575 -0.469994,0.25781 -0.263475,-0.0527 -0.332846,0.009 -0.7888,0.70619 -0.408377,0.62407 -0.499922,0.85061 -0.499922,1.23712 0,0.56403 -0.134554,0.72633 -0.602196,0.72633 -0.319343,0 -0.33812,0.0174 -0.220846,0.20522 0.212871,0.34087 -0.152941,1.57926 -0.861968,2.918 -0.341285,0.6444 -0.725758,1.51807 -0.854362,1.94149 -0.223905,0.73717 -0.226194,0.78405 -0.05387,1.10404 0.177362,0.32934 0.173765,0.35069 -0.248506,1.4749 -0.235656,0.6274 -0.428473,1.15802 -0.428473,1.17916 0,0.0211 0.231426,0.0384 0.514269,0.0384 0.483867,0 0.517909,0.0182 0.575866,0.30799 0.116409,0.58205 0.764483,0.55696 1.049457,-0.0406 0.171634,-0.35992 0.18078,-0.36375 0.942078,-0.39452 0.604158,-0.0244 0.830996,0.0101 1.059468,0.16115 0.355548,0.2351 0.64818,0.19534 0.689733,-0.0937 0.02678,-0.18628 0.156728,-0.23395 0.94942,-0.34828 1.088247,-0.15696 3.361433,-0.62958 3.661165,-0.7612 0.11604,-0.051 0.59766,-0.23295 1.07027,-0.40443 0.472611,-0.17147 1.239004,-0.50269 1.703091,-0.73602 0.833032,-0.41885 0.844583,-0.42129 0.906243,-0.19133 0.03435,0.12811 0.06263,0.66017 0.06286,1.18235 0.0011,1.39853 -0.360653,2.0625 -1.719927,3.16114 -0.412196,0.33317 -0.527298,0.38278 -0.604,0.26035 -0.147023,-0.2347 -0.8939,0.19423 -0.883077,0.50715 0.0062,0.18144 -0.145156,0.31191 -0.701115,0.60406 -0.390022,0.20495 -0.741561,0.37264 -0.781204,0.37264 -0.03964,0 -0.04079,-0.14241 -0.0025,-0.31647 0.05985,-0.27246 0.039,-0.31648 -0.14985,-0.31648 -0.184894,0 -0.219369,0.0651 -0.219369,0.41397 v 0.41396 l -1.134029,0.44432 c -1.673469,0.65567 -2.55816,0.94316 -2.55816,0.83129 0,-0.0546 -0.07121,-0.0992 -0.158237,-0.0992 -0.08703,0 -0.158237,0.0669 -0.158237,0.1487 0,0.0911 -0.306588,0.25178 -0.791183,0.41472 -0.461671,0.15522 -0.791183,0.21934 -0.791183,0.15396 0,-0.16011 -0.732742,-0.0241 -0.881526,0.16364 -0.06635,0.0837 -0.439803,0.20573 -0.829878,0.27114 -0.591151,0.0991 -0.773334,0.0921 -1.094164,-0.0419 -0.407977,-0.17046 -0.967755,-0.20909 -1.16093,-0.0801 -0.06384,0.0426 -0.168955,0.17803 -0.2336,0.30091 -0.0999,0.18989 -0.248632,0.23394 -0.991585,0.29366 -0.480733,0.0387 -1.071125,0.0971 -1.311982,0.12986 -0.379755,0.0517 -0.447243,0.0302 -0.508111,-0.16156 -0.03861,-0.12163 -0.191927,-0.2517 -0.340715,-0.28905 -0.337291,-0.0847 -1.360868,0.22671 -1.442221,0.43871 -0.04823,0.1257 -0.303237,0.15616 -1.307314,0.15616 -1.025965,0 -1.413016,0.048 -2.180432,0.27049 -1.087566,0.3153 -1.235727,0.28458 -2.126311,-0.44081 -0.298206,-0.24289 -0.631742,-0.45867 -0.741191,-0.47952 -0.136157,-0.0259 -0.215656,-0.15417 -0.251745,-0.4061 -0.07064,-0.4929 -0.316987,-0.8429 -0.593305,-0.8429 -0.269603,0 -0.328177,-0.17701 -0.41889,-1.2659 -0.108506,-1.30247 0.407218,-3.72617 1.75085,-8.22831 1.223282,-4.09887 2.238883,-6.94687 2.572983,-7.21528 0.07965,-0.064 0.17022,-0.32272 0.201263,-0.57495 0.03317,-0.26949 0.222186,-0.72624 0.458388,-1.10765 0.343308,-0.55438 0.402495,-0.73895 0.405707,-1.2652 0.0028,-0.45797 0.05036,-0.65022 0.185278,-0.74887 0.09983,-0.073 0.155257,-0.15899 0.123162,-0.19109 -0.03209,-0.0321 0.109119,-0.29146 0.313809,-0.57637 0.408413,-0.56848 0.907214,-1.57423 0.904342,-1.82345 -0.002,-0.17777 -0.486944,0.33995 -1.027947,1.09753 -0.191386,0.268 -0.722681,0.74855 -1.188357,1.07486 -0.908164,0.63637 -1.050036,0.81052 -1.050036,1.28896 0,0.36512 -0.131131,0.49422 -0.632947,0.62316 -0.259402,0.0666 -0.379099,0.16248 -0.402437,0.32223 -0.01837,0.12575 -0.672704,0.8537 -1.464146,1.62888 -0.78701,0.77082 -1.666111,1.68633 -1.953557,2.03445 -0.287446,0.34812 -0.744616,0.8712 -1.015933,1.1624 -0.816206,0.87601 -1.881781,2.36267 -2.198083,3.0667 -0.189094,0.42089 -0.37457,0.68229 -0.509072,0.71747 -0.589353,0.15415 -1.527881,1.59244 -1.754238,2.68835 -0.110299,0.53401 -0.172496,0.63571 -0.497129,0.81287 -0.506527,0.27641 -0.529706,0.43945 -0.07462,0.52483 0.425193,0.0798 0.581744,0.39902 0.380268,0.77548 -0.09584,0.17908 -0.218281,0.22081 -0.647881,0.22081 h -0.529708 l 0.179999,0.30472 c 0.240391,0.40695 0.152244,0.57855 -0.378928,0.73769 l -0.4438,0.13297 0.06811,0.45417 0.06811,0.45418 -0.822064,0.52566 c -0.452133,0.28911 -0.986732,0.61013 -1.187995,0.71339 -0.201264,0.10325 -0.644168,0.46596 -0.984232,0.80602 -0.612125,0.61213 -0.624418,0.6183 -1.23097,0.6183 -0.527629,0 -0.687173,0.0512 -1.14942,0.36922 -0.440318,0.30289 -0.632878,0.36922 -1.071809,0.36922 -0.446741,0 -0.574385,0.0457 -0.773316,0.27699 -0.232411,0.2702 -0.246398,0.27278 -0.569902,0.10549 -0.443946,-0.22957 -0.555225,-0.21818 -0.980947,0.10041 -1.326658,0.99279 -2.513554,1.0911 -3.289543,0.27246 -0.201308,-0.21237 -0.750532,-0.92283 -1.220495,-1.5788 l -0.854479,-1.19267 0.321491,-0.86441 c 2.504149,-6.733 4.381662,-12.31925 5.449821,-16.21509 0.852005,-3.10747 1.749156,-7.44392 1.95033,-9.42706 l 0.05222,-0.51479 -0.525464,0.52547 c -0.379893,0.37989 -0.531811,0.61714 -0.548375,0.85641 -0.01667,0.24081 -0.139674,0.43089 -0.451616,0.69791 -0.528735,0.45257 -0.772522,0.94617 -0.772522,1.56411 v 0.47262 l -0.501083,0.12631 c -0.444438,0.11204 -0.480214,0.1416 -0.316473,0.26151 0.320931,0.23502 0.211652,0.54076 -0.389744,1.0904 -0.561657,0.51332 -0.571886,0.53296 -0.462782,0.88845 0.108459,0.35339 0.09561,0.3795 -0.460938,0.93616 -0.790543,0.79072 -0.927637,1.03313 -1.012583,1.79042 -0.04777,0.42587 -0.129793,0.68465 -0.232113,0.73231 -0.559873,0.26081 -0.557951,0.25776 -0.569222,0.90274 -0.01028,0.58782 -0.028,0.63047 -0.274707,0.66086 -0.181272,0.0223 -0.379166,0.20295 -0.632947,0.57771 -0.20307,0.29988 -0.883897,1.2052 -1.512948,2.01182 -0.868585,1.11376 -1.132628,1.52465 -1.09758,1.708 0.03534,0.18484 -0.06173,0.33159 -0.414222,0.62624 -0.275518,0.2303 -0.591596,0.6468 -0.787178,1.03726 -0.373103,0.74486 -0.893631,1.43588 -1.484748,1.97107 -0.224295,0.20307 -0.566666,0.68786 -0.760826,1.07732 -0.636291,1.27631 -2.890839,4.30071 -5.153791,6.91363 -0.595168,0.68721 -0.914774,0.97579 -1.080706,0.97579 -0.129586,0 -0.294707,0.0712 -0.366936,0.15824 -0.09646,0.11623 -0.352643,0.15824 -0.964948,0.15824 -0.787503,0 -0.839058,0.0143 -0.931847,0.25835 -0.05402,0.14209 -0.43374,0.6688 -0.843815,1.17047 -0.410075,0.50166 -0.818115,1.05236 -0.906756,1.22377 l -0.161163,0.31166 -0.390167,-0.2325 c -0.214592,-0.12787 -0.457061,-0.29377 -0.538819,-0.36865 -0.124316,-0.11386 -0.197331,-0.0594 -0.446014,0.33274 l -0.297362,0.46889 -0.714389,-0.009 c -0.392914,-0.005 -0.976796,-0.0654 -1.297517,-0.13447 z m 76.958702,-1.76933 c -1.199529,-0.11468 -2.439271,-0.42579 -3.297916,-0.8276 -1.262053,-0.59059 -2.609882,-1.45419 -3.118971,-1.99845 -1.856549,-1.9848 -1.709125,-5.36632 0.343763,-7.8851 1.929052,-2.36683 6.492969,-4.25574 12.297096,-5.08952 1.430941,-0.20555 3.23243,-0.36136 5.956622,-0.51516 l 1.315011,-0.0742 0.19286,-0.79118 c 0.10607,-0.43515 0.20265,-1.24504 0.21461,-1.79975 0.0202,-0.93674 -0.001,-1.05319 -0.29791,-1.63512 -0.44178,-0.86587 -0.6642,-0.93835 -2.845071,-0.92702 -2.008692,0.0104 -2.810002,0.19005 -5.432792,1.21776 -0.89931,0.35239 -1.943675,0.7097 -2.320805,0.79402 -0.889048,0.19879 -1.787157,0.11231 -2.36124,-0.22735 -0.238853,-0.14132 -0.681304,-0.38115 -0.98323,-0.53296 -0.301926,-0.15181 -0.673371,-0.42387 -0.825426,-0.60457 -0.261723,-0.31104 -1.421134,-2.51224 -1.421134,-2.6981 0,-0.27752 3.804442,-2.19578 5.560711,-2.80379 4.780594,-1.655 10.743947,-1.96356 14.205477,-0.73503 1.00262,0.35584 3.14543,1.50999 3.8934,2.09705 1.20478,0.94559 2.11061,2.41985 2.45414,3.99418 0.14539,0.66628 0.16909,1.12167 0.11805,2.26806 -0.0605,1.35791 -0.16431,1.88709 -1.94775,9.92642 l -1.88387,8.49203 -2.68167,-4.2e-4 c -2.58414,-4.2e-4 -2.69798,-0.009 -3.13001,-0.2395 -0.24658,-0.1315 -0.44833,-0.28182 -0.44833,-0.33405 0,-0.0522 -0.14594,-0.12702 -0.32431,-0.1662 -0.498641,-0.10952 -0.999731,-0.61281 -1.152161,-1.15721 -0.0733,-0.2619 -0.13944,-0.47618 -0.1469,-0.47618 -0.007,0 -0.65404,0.32271 -1.43679,0.71714 -2.472032,1.24562 -4.448502,1.8162 -7.003192,2.0217 -1.527016,0.12283 -2.121954,0.12115 -3.492263,-0.01 z m 6.065743,-5.6259 c 1.12571,-0.17177 2.18423,-0.50738 3.30423,-1.04762 0.655961,-0.31641 1.976441,-1.10508 2.204801,-1.31685 0.0816,-0.0757 0.71494,-2.77462 0.71494,-3.04682 0,-0.14127 -0.15565,-0.15333 -1.17775,-0.0913 -2.407821,0.14624 -4.956711,0.62527 -6.470351,1.21601 -1.469716,0.5736 -2.333308,1.38915 -2.585896,2.44205 -0.138943,0.57917 -0.0696,1.31081 0.152255,1.60647 0.290533,0.38719 2.134541,0.50096 3.857771,0.23802 z m 20.816982,5.19136 c -0.0455,-0.0725 -0.0695,-0.21237 -0.0533,-0.31076 0.024,-0.14625 -0.0727,-0.18476 -0.53008,-0.21098 -0.46653,-0.0267 -0.56435,-0.0671 -0.58869,-0.24307 -0.016,-0.11604 1.23292,-5.93124 2.77549,-12.92266 1.54259,-6.99143 2.83224,-12.84588 2.8659,-13.00991 l 0.0612,-0.29823 3.12355,0.0345 c 3.27075,0.0361 3.50551,0.0689 3.89981,0.54397 0.0704,0.0848 0.2848,0.18358 0.47652,0.21955 0.5899,0.11067 1.01528,0.73612 1.01528,1.49279 v 0.36197 l 0.97579,-0.74199 c 1.09175,-0.83018 2.96296,-1.80214 3.94239,-2.0478 1.06997,-0.26836 2.52705,-0.37707 3.58534,-0.2675 0.5285,0.0547 1.05068,0.12803 1.1604,0.1629 0.45676,0.14518 2.57278,1.26837 2.57256,1.36552 0,0.21278 -1.79248,5.25827 -1.95644,5.50849 -0.0931,0.14212 -0.34363,0.33157 -0.55669,0.421 -0.39816,0.16712 -0.3756,0.16735 -3.49938,-0.0346 -2.73193,-0.17666 -5.01157,0.98933 -6.84207,3.49956 -0.1833,0.25137 -0.62792,2.10541 -2.02372,8.43867 -0.98385,4.46409 -1.78881,8.12867 -1.78881,8.14351 0,0.0148 -1.91977,0.027 -4.26617,0.027 -3.29848,0 -4.28492,-0.0299 -4.34887,-0.13187 z m 24.59724,-0.0782 c -0.0367,-0.11552 -0.0371,-0.25793 -0.001,-0.31647 0.0408,-0.0661 -0.13159,-0.10644 -0.45499,-0.10644 -0.28845,0 -0.56914,-0.0588 -0.62921,-0.13186 -0.0768,-0.0934 0.71878,-3.88697 2.7267,-13.00178 1.55933,-7.07846 2.86133,-12.97726 2.89335,-13.10846 l 0.0582,-0.23854 4.29646,0.0276 4.29646,0.0275 -0.004,0.2901 c -0.004,0.28065 0.0141,0.2901 0.55714,0.2901 0.40017,0 0.57862,0.0452 0.62167,0.15733 0.0332,0.0865 -1.23665,6.04414 -2.82188,13.23914 l -2.88213,13.08181 h -4.29496 c -4.19589,0 -4.29651,-0.005 -4.36164,-0.21004 z m 17.17725,0.0782 c -0.0455,-0.0725 -0.0695,-0.21237 -0.0533,-0.31076 0.024,-0.14625 -0.0727,-0.18476 -0.53008,-0.21098 -0.51087,-0.0293 -0.56141,-0.055 -0.58163,-0.29581 -0.0122,-0.14505 1.83935,-8.68983 4.1145,-18.98841 l 4.13661,-18.72467 h 4.32481 4.3248 l -0.0251,0.23735 c -0.023,0.21707 0.0187,0.23736 0.48816,0.23736 0.31548,0 0.56136,0.0579 0.63801,0.15027 0.0983,0.11847 -0.34629,2.2893 -2.10114,10.25901 -1.22422,5.55981 -2.25307,10.19875 -2.28635,10.30875 -0.0551,0.18196 -0.0194,0.19344 0.39495,0.12718 0.25051,-0.0401 0.60925,-0.16788 0.79722,-0.28405 0.18797,-0.11617 2.16795,-2.07224 4.39998,-4.34682 4.26179,-4.34308 4.648,-4.67362 5.8129,-4.97507 0.92852,-0.24028 8.78851,-0.24304 8.88058,-0.003 0.0337,0.0878 0.005,0.22782 -0.0646,0.31122 -0.10681,0.12869 -0.0249,0.15642 0.54097,0.18326 0.49883,0.0237 0.67457,0.0725 0.69764,0.19372 0.0315,0.16564 -9.72022,9.57869 -10.63057,10.26138 -0.26109,0.19579 -0.79276,0.53839 -1.18149,0.76133 l -0.70679,0.40534 0.34357,0.38029 c 0.73799,0.81686 1.1467,1.61831 3.97741,7.79913 2.19182,4.78581 2.89914,6.42674 2.81456,6.5295 -0.0902,0.10954 -0.97746,0.13084 -4.39435,0.10549 -4.22694,-0.0314 -4.2874,-0.0349 -4.75608,-0.27406 -1.05184,-0.53687 -1.64852,-0.89311 -1.90609,-1.138 -0.1927,-0.18322 -0.84784,-1.72079 -2.26806,-5.32292 l -1.99708,-5.06528 -1.00085,0.0295 -1.00085,0.0295 -1.11755,5.06357 c -0.61464,2.78497 -1.19999,5.43148 -1.30076,5.88113 l -0.18324,0.81756 h -4.25898 c -3.29273,0 -4.27772,-0.0299 -4.34167,-0.13187 z M 147.7864,115.2123 c -0.9181,-0.2467 -2.61246,-1.23468 -3.23483,-1.88624 -0.70778,-0.74097 -0.92451,-1.36408 -0.85813,-2.46717 0.0641,-1.06442 0.49725,-1.93561 1.39672,-2.80887 1.28939,-1.25184 2.68922,-1.84847 4.52656,-1.92928 1.49135,-0.0656 2.0448,0.0645 3.56899,0.83881 2.02978,1.03117 2.6952,1.97055 2.59372,3.66164 -0.0362,0.60393 -0.12102,0.94705 -0.33999,1.37603 -0.77822,1.52453 -2.7947,2.91375 -4.74666,3.27014 -0.86096,0.1572 -2.21168,0.13161 -2.90638,-0.0551 z"
         id="path3750"
         inkscape:connector-curvature="0" />
      <path
         style="fill:#962907;stroke-width:0.10549112"
         d="m 129.44792,177.71907 c -1.74769,-0.2268 -3.52617,-0.91071 -4.71295,-1.81235 -0.98996,-0.75211 -1.26889,-1.12939 -0.34913,-0.47223 0.93064,0.66492 1.9918,1.13605 3.32324,1.47541 0.8152,0.20779 1.19407,0.23665 3.09163,0.23555 1.70853,-0.001 2.35082,-0.0423 3.05924,-0.19667 1.69385,-0.36915 3.09131,-0.96906 4.17142,-1.79073 l 0.62843,-0.47806 0.26372,0.26507 0.26373,0.26506 -0.46849,0.42032 c -0.65903,0.59125 -2.39338,1.41877 -3.61611,1.72538 -1.72997,0.43381 -3.99156,0.5791 -5.65473,0.36325 z m 18.90231,-0.035 c -0.41425,-0.0793 -0.93643,-0.20283 -1.1604,-0.27457 -0.85579,-0.27411 -2.05019,-0.98277 -2.69791,-1.60072 -0.42717,-0.40753 -0.49417,-0.49527 -0.18835,-0.24664 0.5903,0.47991 1.95705,1.15729 2.79552,1.38549 0.84562,0.23015 3.18632,0.31147 4.2958,0.14925 1.76686,-0.25835 3.39149,-0.92987 4.59395,-1.89881 l 0.63672,-0.51308 0.22122,0.23548 c 0.12167,0.12951 0.22122,0.28774 0.22122,0.3516 0,0.32058 -1.96858,1.53198 -3.16426,1.94721 -1.53417,0.53275 -4.08343,0.7461 -5.55351,0.46479 z m -37.20603,-0.13301 c -0.0387,-0.0387 -0.0703,-0.18018 -0.0703,-0.31445 v -0.24413 l 2.34717,-0.0284 2.34718,-0.0284 0.027,-8.46421 0.027,-8.4642 3.40146,-0.0278 3.40147,-0.0278 0.0294,-1.39775 c 0.0276,-1.31061 0.0424,-1.39776 0.23735,-1.39776 0.19823,0 0.20793,0.0786 0.20793,1.68639 v 1.6864 l -3.40209,0.0278 -3.40209,0.0278 -0.027,8.51841 -0.027,8.51841 h -2.51358 c -1.38247,0 -2.54524,-0.0316 -2.58391,-0.0703 z m 49.29951,-0.24405 v -0.31437 l 2.24169,-0.0285 2.24169,-0.0285 0.0527,-5.52369 0.0527,-5.52368 0.68569,-0.4149 c 1.07058,-0.6478 1.90593,-0.85893 3.20777,-0.81074 0.98674,0.0365 1.13526,0.0695 1.59534,0.35463 0.63929,0.39614 0.75987,0.64784 0.18948,0.39552 -0.28879,-0.12774 -0.70405,-0.17974 -1.45864,-0.18262 -0.90103,-0.003 -1.17032,0.0389 -1.84609,0.29012 -0.43515,0.16179 -1.05228,0.47036 -1.37139,0.6857 l -0.5802,0.39153 -0.0273,5.51191 -0.0273,5.51191 h -2.4781 -2.47811 z m 11.77985,0.24405 c -0.0387,-0.0387 -0.0703,-0.18109 -0.0703,-0.31648 v -0.24614 h 2.26806 2.26806 l -0.002,-5.35367 c -0.002,-5.70229 -0.0337,-6.12951 -0.53321,-7.10863 -0.12056,-0.23632 -0.17273,-0.40095 -0.11594,-0.36585 0.18105,0.11189 0.6253,0.94593 0.87896,1.65012 0.24354,0.67615 0.2458,0.72667 0.27833,6.24632 l 0.0328,5.56466 h -2.46741 c -1.35708,0 -2.49908,-0.0316 -2.53775,-0.0703 z m -24.75684,-4.99547 c -0.61313,-0.86107 -0.93983,-2.72306 -0.74471,-4.24452 0.34719,-2.70727 1.64387,-3.8923 4.10324,-3.74993 0.74014,0.0428 0.97782,0.11181 1.86698,0.54168 1.55374,0.75118 1.78552,0.70475 3.01744,-0.60441 l 0.68485,-0.72779 0.28399,0.18609 c 0.15619,0.10234 0.284,0.22829 0.284,0.2799 0,0.0516 -0.39164,0.49418 -0.87031,0.98353 -1.15165,1.17734 -1.28244,1.2038 -2.69262,0.5446 -1.57741,-0.73736 -2.54644,-0.84366 -3.84468,-0.42178 -0.59831,0.19443 -1.48683,0.96302 -1.78187,1.54137 -0.74456,1.45945 -0.82216,4.36687 -0.15119,5.66439 0.2146,0.41499 0.13792,0.4184 -0.15512,0.007 z m -20.36411,-0.32254 c -0.28344,-0.39806 -0.72728,-1.62715 -0.7303,-2.02241 l -0.002,-0.2901 h 5.86169 c 3.99717,0 5.92944,-0.0363 6.07467,-0.11399 0.72774,-0.38947 0.66443,-2.70585 -0.12063,-4.41289 -0.39894,-0.8675 -0.0563,-0.47845 0.41316,0.46911 0.46183,0.93215 0.64103,1.74692 0.64103,2.91456 0,1.13056 -0.10428,1.48269 -0.49131,1.65903 -0.17852,0.0813 -2.04487,0.11712 -6.10886,0.11712 h -5.8518 l 0.0653,0.2901 c 0.17356,0.77064 0.28986,1.15839 0.42716,1.42413 0.19941,0.38595 0.10907,0.36835 -0.17791,-0.0347 z m -0.57954,-5.1344 c 0.25596,-1.05516 1.13388,-2.07121 2.1213,-2.45512 0.51134,-0.19879 0.84035,-0.24526 1.78712,-0.25246 1.42518,-0.0108 2.04682,0.1768 2.76781,0.83543 l 0.50241,0.45896 -0.6778,-0.33315 c -0.59899,-0.29441 -0.80387,-0.33782 -1.76202,-0.37328 -0.88187,-0.0326 -1.22069,0.001 -1.81548,0.18198 -0.87755,0.26654 -1.68461,0.93154 -2.08178,1.71531 -0.22622,0.44641 -0.30168,0.51243 -0.5858,0.51243 -0.30251,0 -0.32103,-0.021 -0.25576,-0.2901 z m 38.45676,-7.88457 c 0,-3.6755 0.004,-3.74583 0.21098,-3.74583 0.20688,0 0.21099,0.0703 0.21099,3.61407 0,3.49982 -0.007,3.61823 -0.21099,3.74583 -0.20949,0.13083 -0.21098,0.10535 -0.21098,-3.61407 z m -60.65739,1.05402 v -0.26373 h 3.11198 3.11199 v 0.26373 0.26373 h -3.11199 -3.11198 z M 10.79466,146.9214 c -0.411581,-0.0434 -0.9812334,-0.18154 -1.2658944,-0.30695 -0.511656,-0.22542 -1.659177,-1.23852 -1.568685,-1.38494 0.02573,-0.0416 0.328091,0.0379 0.671903,0.17679 0.638982,0.25809 1.9983374,0.43705 2.4506164,0.32262 0.137173,-0.0347 0.36468,-0.2504 0.505568,-0.47931 l 0.256163,-0.41621 0.524975,0.35354 0.524973,0.35354 0.419763,-0.60076 c 0.230869,-0.33041 0.655814,-0.88391 0.944321,-1.22999 0.288506,-0.34608 0.565801,-0.73771 0.616211,-0.8703 0.08479,-0.22303 0.154041,-0.24107 0.925277,-0.24107 0.612305,0 0.868489,-0.042 0.964948,-0.15823 0.07223,-0.087 0.232322,-0.15826 0.355763,-0.15828 0.504483,-1e-4 5.062499,-5.72644 6.08814,-7.64867 0.272814,-0.5113 0.744044,-1.15482 1.196889,-1.63451 0.434638,-0.4604 0.913153,-1.10844 1.144529,-1.55 0.221867,-0.42342 0.582975,-0.91748 0.816975,-1.11778 0.302828,-0.25921 0.419361,-0.44074 0.419361,-0.65325 0,-0.20877 0.232554,-0.58343 0.800175,-1.28916 0.440097,-0.54716 1.108188,-1.4308 1.484647,-1.96364 0.506543,-0.71695 0.757864,-0.98305 0.966802,-1.02367 0.270425,-0.0526 0.282278,-0.0828 0.281119,-0.71637 -0.0011,-0.61978 0.01549,-0.66546 0.263727,-0.72447 0.41355,-0.0983 0.52862,-0.24038 0.529255,-0.65339 0.0011,-0.73627 0.202841,-1.16189 0.901765,-1.90279 0.664739,-0.70466 0.676372,-0.7269 0.557951,-1.0666 -0.118784,-0.34075 -0.110243,-0.35654 0.478196,-0.88444 0.613057,-0.54999 0.712953,-0.78158 0.436211,-1.01125 -0.221663,-0.18396 -0.118037,-0.28806 0.36861,-0.37028 l 0.421412,-0.0712 v -0.52343 c 0,-0.64856 0.184241,-1.01626 0.753253,-1.50331 0.349041,-0.29877 0.442312,-0.45006 0.442312,-0.71745 0,-0.27407 0.109099,-0.44068 0.570685,-0.87151 0.671921,-0.62715 0.871028,-0.9655 0.871028,-1.48015 0,-0.37824 0.03115,-0.40872 0.527455,-0.51606 l 0.263728,-0.057 -0.06855,1.02402 c -0.0377,0.56321 -0.0733,1.18361 -0.07912,1.37866 -0.0086,0.28883 -0.118254,0.45328 -0.590773,0.88607 -0.457081,0.41865 -0.580201,0.5988 -0.580201,0.84896 0,0.24024 -0.139051,0.46333 -0.571138,0.91633 -0.483907,0.50732 -0.581781,0.67795 -0.640822,1.11719 -0.100368,0.7467 -0.110817,0.76346 -0.524264,0.84103 -0.423846,0.0795 -0.551946,0.20339 -0.341489,0.33022 0.362898,0.21871 0.287977,0.46062 -0.31708,1.0238 -0.583089,0.54274 -0.596283,0.56734 -0.492079,0.9174 0.104295,0.35038 0.08866,0.37929 -0.602037,1.11346 -0.707739,0.75229 -0.756571,0.85434 -0.88865,1.85716 -0.05149,0.39097 -0.108373,0.50109 -0.258827,0.50109 -0.215314,0 -0.766973,0.41292 -0.559052,0.41845 0.08698,0.002 0.131864,0.17856 0.131864,0.51778 0,0.48237 -0.01886,0.51804 -0.304112,0.57509 -0.230022,0.046 -0.444674,0.26124 -0.881079,0.88349 -0.317333,0.45247 -1.00258,1.35961 -1.52277,2.01586 -0.74994,0.94611 -0.938451,1.25195 -0.910307,1.47688 0.02864,0.22887 -0.04131,0.33594 -0.36206,0.55419 -0.277414,0.18876 -0.541009,0.53898 -0.872263,1.1589 -0.308874,0.57803 -0.726158,1.14529 -1.194485,1.62379 -0.395875,0.40448 -0.787069,0.89647 -0.86932,1.09332 -0.40642,0.9727 -2.576544,3.95492 -4.690132,6.44524 -1.236917,1.45739 -1.545377,1.7676 -1.651801,1.66118 -0.03886,-0.0389 -0.169936,0.0226 -0.291289,0.13664 -0.176538,0.16584 -0.399293,0.21349 -1.114317,0.23832 -0.797239,0.0277 -0.897942,0.0538 -0.933247,0.24202 -0.02177,0.11604 -0.402059,0.66673 -0.845096,1.22376 -0.443036,0.55703 -0.854716,1.09748 -0.914845,1.201 -0.101534,0.1748 -0.146633,0.16474 -0.632947,-0.14121 l -0.523622,-0.32942 -0.158237,0.23608 c -0.302558,0.4514 -0.6248,0.71071 -0.865507,0.69647 -0.133182,-0.008 -0.578897,-0.0498 -0.990478,-0.0933 z m 43.873723,-1.16107 c -0.278839,-0.16018 -0.622065,-0.41498 -0.762724,-0.5662 -0.140659,-0.15123 -0.366147,-0.27496 -0.501082,-0.27496 -0.162781,0 -0.245824,-0.0621 -0.24678,-0.18461 -8.44e-4,-0.10154 -0.03156,-0.30329 -0.06838,-0.44834 l -0.06693,-0.26373 0.252984,0.22502 c 0.39583,0.35207 0.936518,0.59118 1.132807,0.50096 0.0963,-0.0443 1.305314,-0.10874 2.6867,-0.1433 1.761541,-0.0441 2.534676,-0.10014 2.588839,-0.18778 0.09574,-0.15491 0.905431,-0.44764 1.23817,-0.44764 0.135496,0 0.341689,0.10233 0.458208,0.2274 0.207191,0.22239 0.240335,0.22477 1.506399,0.10837 0.712001,-0.0655 1.311086,-0.16865 1.331298,-0.22929 0.140081,-0.42023 0.75883,-0.54479 1.38934,-0.27969 0.28876,0.12142 0.463442,0.1201 1.145253,-0.009 0.442482,-0.0836 0.837346,-0.20502 0.877475,-0.26995 0.04012,-0.0649 0.304311,-0.12538 0.587091,-0.13435 0.615477,-0.0195 1.612526,-0.32413 1.789328,-0.54663 0.06973,-0.0878 0.200486,-0.1313 0.290565,-0.0967 0.169093,0.0649 1.237242,-0.28531 2.800114,-0.91804 0.874743,-0.35414 0.897477,-0.37231 0.929419,-0.74285 0.02602,-0.30181 0.07711,-0.37983 0.248791,-0.37983 0.177773,0 0.204325,0.0467 0.14986,0.26373 -0.03641,0.14505 -0.04246,0.26373 -0.01344,0.26373 0.02902,0 0.360115,-0.15157 0.735779,-0.33681 0.468624,-0.23109 0.692761,-0.40493 0.714059,-0.55383 0.03905,-0.27296 0.789063,-0.69995 0.905103,-0.51527 0.05277,0.084 0.270163,-0.0349 0.676884,-0.37028 0.722963,-0.59606 1.293648,-1.30766 1.499525,-1.86978 l 0.15215,-0.41544 0.0064,0.5802 c 0.0109,0.98739 -0.489194,1.80202 -1.713936,2.79192 -0.412196,0.33317 -0.527297,0.38278 -0.604,0.26035 -0.147023,-0.2347 -0.8939,0.19423 -0.883076,0.50715 0.0062,0.18144 -0.145156,0.31191 -0.701115,0.60406 -0.390022,0.20495 -0.741561,0.37264 -0.781204,0.37264 -0.03964,0 -0.04079,-0.14241 -0.0025,-0.31647 0.05984,-0.27246 0.039,-0.31648 -0.14985,-0.31648 -0.184895,0 -0.219369,0.0651 -0.219369,0.41397 v 0.41396 l -1.13403,0.44432 c -1.673469,0.65567 -2.55816,0.94316 -2.55816,0.83129 0,-0.0546 -0.07121,-0.0992 -0.158236,-0.0992 -0.08703,0 -0.158237,0.0669 -0.158237,0.1487 0,0.0911 -0.306589,0.25178 -0.791183,0.41472 -0.461672,0.15522 -0.791184,0.21934 -0.791184,0.15396 0,-0.16011 -0.732741,-0.0241 -0.881526,0.16364 -0.06635,0.0837 -0.439803,0.20573 -0.829877,0.27114 -0.591152,0.0991 -0.773335,0.0921 -1.094165,-0.0419 -0.407976,-0.17046 -0.967754,-0.20909 -1.16093,-0.0801 -0.06384,0.0426 -0.168954,0.17803 -0.233599,0.30091 -0.0999,0.18989 -0.248632,0.23394 -0.991585,0.29366 -0.480734,0.0387 -1.071124,0.0971 -1.311983,0.12986 -0.379754,0.0517 -0.447242,0.0302 -0.50811,-0.16156 -0.03861,-0.12163 -0.191928,-0.2517 -0.340716,-0.28905 -0.337291,-0.0847 -1.360868,0.22671 -1.44222,0.43871 -0.0486,0.12665 -0.315686,0.15616 -1.413662,0.15616 -1.11153,0 -1.50743,0.0447 -2.212726,0.24973 l -0.858985,0.24973 -0.506982,-0.29125 z m -22.395278,-0.50936 c -0.200648,-0.10761 -0.545732,-0.4399 -0.766853,-0.73844 -0.416338,-0.56209 -0.424781,-0.62278 -0.05944,-0.42726 0.30406,0.16273 1.155258,0.13668 1.599526,-0.0489 0.206217,-0.0862 0.650399,-0.34256 0.987071,-0.56976 0.590309,-0.39837 0.62469,-0.4079 0.964361,-0.2673 0.391886,0.16221 0.755428,0.0981 0.755428,-0.13331 0,-0.11437 0.153855,-0.15112 0.632704,-0.15112 0.554869,0 0.695922,-0.0454 1.146628,-0.36922 0.451899,-0.32466 0.59096,-0.36922 1.152207,-0.36922 0.635404,0 0.641052,-0.003 1.253294,-0.60657 0.338258,-0.33362 1.137195,-0.92189 1.775416,-1.30727 l 1.160402,-0.70069 -0.03308,-0.46609 c -0.02947,-0.41519 -0.003,-0.4798 0.242319,-0.59158 0.151471,-0.069 0.341177,-0.12548 0.421567,-0.12548 0.230945,0 0.30833,-0.41118 0.117144,-0.62244 -0.257374,-0.2844 -0.210187,-0.32698 0.362322,-0.32698 0.480994,0 0.540352,-0.0269 0.641165,-0.2901 0.141347,-0.36909 0.01828,-0.57195 -0.415108,-0.68426 -0.459248,-0.119 -0.425111,-0.37827 0.07571,-0.575 0.375695,-0.14758 0.415365,-0.20184 0.475823,-0.65083 0.131293,-0.97504 0.964161,-2.37708 1.615879,-2.72014 0.250469,-0.13184 0.436063,-0.34297 0.567056,-0.64505 0.557689,-1.28612 2.132644,-3.21201 4.969243,-6.07651 0.96863,-0.97816 1.775637,-1.87405 1.793349,-1.99086 0.02166,-0.14283 0.187366,-0.26949 0.505991,-0.38676 0.45228,-0.16646 0.47709,-0.19747 0.546558,-0.68311 0.04002,-0.2798 0.08791,-0.51941 0.106413,-0.53247 1.329042,-0.93785 1.892883,-1.39488 2.169839,-1.7588 0.188565,-0.24778 0.342846,-0.48387 0.342846,-0.52466 0,-0.0408 0.58152,-0.58669 1.292266,-1.21312 0.710747,-0.62643 1.403368,-1.23716 1.539157,-1.35717 0.187911,-0.16608 0.09336,0.0941 -0.395807,1.08892 -0.353484,0.71891 -0.698428,1.49313 -0.766544,1.72047 -0.06812,0.22735 -0.246966,0.51736 -0.397448,0.64447 -0.150481,0.12711 -0.376491,0.39726 -0.502242,0.60033 -0.296229,0.47836 -0.861699,1.00516 -1.730944,1.61255 -0.663932,0.46393 -0.701149,0.5126 -0.766038,1.00176 -0.06687,0.50406 -0.078,0.51717 -0.568059,0.66876 -0.415875,0.12864 -0.505415,0.20208 -0.532944,0.43708 -0.02265,0.19339 -0.249682,0.47262 -0.719952,0.88549 -0.612392,0.53765 -1.696117,1.68152 -3.54362,3.74026 -1.008793,1.12414 -1.883611,2.32228 -2.251232,3.08327 -0.255102,0.52806 -0.442484,0.77154 -0.698084,0.90707 -0.689434,0.36555 -1.668023,2.0396 -1.668023,2.85345 0,0.25755 -0.07268,0.35029 -0.408954,0.52185 -0.620013,0.3163 -0.677552,0.63958 -0.113837,0.63958 0.366425,0 0.518625,0.18799 0.448395,0.55383 -0.04998,0.26035 -0.100406,0.29027 -0.49173,0.29172 -0.61352,0.002 -0.774269,0.12008 -0.567215,0.41569 0.246945,0.35256 0.121107,0.58243 -0.394306,0.72028 l -0.458582,0.12265 0.01732,0.49344 0.01732,0.49344 -1.117414,0.69616 c -1.342887,0.83664 -1.900014,1.27179 -2.095184,1.63647 -0.134397,0.25112 -0.201413,0.27284 -0.841671,0.27284 -0.620268,0 -0.755056,0.04 -1.243906,0.36922 -0.449505,0.30272 -0.645719,0.36922 -1.08934,0.36922 -0.432671,0 -0.579308,0.0472 -0.731882,0.23563 -0.188268,0.2325 -0.196017,0.23315 -0.583231,0.0485 l -0.392429,-0.18714 -0.646826,0.42096 c -1.203177,0.78304 -1.977505,0.94127 -2.702793,0.55229 z m 54.469084,-0.23216 c -0.999835,-0.13032 -2.030251,-0.41274 -2.726798,-0.74738 -0.348121,-0.16724 -0.546592,-0.28003 -0.441038,-0.25065 1.340687,0.37331 2.448555,0.50513 4.238718,0.50434 3.681356,-0.002 6.150456,-0.65164 9.581158,-2.52239 0.80209,-0.43738 1.47546,-0.77812 1.49637,-0.75721 0.0209,0.0209 0.0694,0.27471 0.1078,0.56399 l 0.0698,0.52595 -1.24967,0.64847 c -2.170892,1.12651 -4.324902,1.80177 -6.493702,2.03572 -1.164622,0.12563 -3.615803,0.12518 -4.582618,-8.4e-4 z m 14.690101,-0.46639 c -0.22609,-0.0806 -0.47371,-0.20904 -0.55025,-0.28547 -0.11513,-0.11496 0.29599,-0.1335 2.38027,-0.10732 2.34999,0.0295 2.52332,0.0189 2.57711,-0.15824 0.0317,-0.10443 0.90099,-3.98756 1.9317,-8.62917 l 1.87402,-8.43929 -0.001,-1.68786 c -10e-4,-1.57511 -0.0205,-1.74416 -0.29557,-2.53077 -0.39128,-1.11903 -0.9178,-1.96216 -1.73676,-2.78112 l -0.67416,-0.67417 0.45929,0.25026 c 0.25261,0.13765 0.86448,0.65377 1.35972,1.14694 0.68411,0.68125 0.99354,1.08675 1.28801,1.68786 0.61314,1.25163 0.76016,1.95037 0.75471,3.5867 l -0.005,1.42413 -1.81952,8.2283 c -1.00074,4.52557 -1.86927,8.43006 -1.93007,8.67665 l -0.11054,0.44834 -2.54564,-0.005 c -1.89465,-0.003 -2.65077,-0.0421 -2.95674,-0.15114 z m 12.59533,-0.10796 v -0.26373 h 3.73434 3.73435 l 0.16799,-0.76481 c 3.84596,-17.51004 3.3354,-15.68748 4.81127,-17.17484 0.92108,-0.92824 1.94595,-1.5676 3.05924,-1.90846 0.88803,-0.2719 2.35536,-0.3217 4.48925,-0.15237 1.30837,0.10382 1.80803,0.007 2.13893,-0.41343 0.10809,-0.13741 0.5904,-1.40382 1.07182,-2.81425 0.48142,-1.41043 0.91014,-2.60375 0.95271,-2.65181 0.0426,-0.0481 0.31902,0.035 0.61431,0.18467 l 0.5369,0.27207 -0.89741,2.60926 c -0.49357,1.43509 -0.96742,2.71612 -1.053,2.84672 -0.34285,0.52327 -0.63781,0.61343 -1.83691,0.56153 -0.6112,-0.0265 -1.84706,-0.0476 -2.74637,-0.047 -1.5331,0.001 -1.68447,0.0196 -2.4263,0.29769 -0.43515,0.16313 -1.10463,0.50372 -1.48774,0.75687 -0.72847,0.48136 -2.01061,1.75419 -2.45634,2.4385 -0.20891,0.32075 -0.60992,1.9892 -2.02931,8.44344 l -1.76895,8.0437 h -4.3044 -4.30438 z m 24.68492,0.001 v -0.26491 h 3.68597 c 2.02727,0 3.70767,-0.0356 3.7342,-0.0791 0.0265,-0.0435 1.32099,-5.85871 2.87659,-12.92266 l 2.82835,-12.84355 h 0.54682 c 0.35398,0 0.56553,0.0488 0.59992,0.13844 0.0292,0.0761 -1.23836,5.99815 -2.81683,13.16002 l -2.86996,13.02158 -4.29253,0.0276 -4.29253,0.0276 v -0.26484 z m 17.10859,0.0252 0.0337,-0.23736 3.7103,-0.0277 3.7103,-0.0277 0.097,-0.447 c 0.0533,-0.24585 0.63858,-2.90359 1.30053,-5.9061 l 1.20354,-5.45911 1.19201,-6e-5 c 0.86226,-4e-5 1.27811,0.0445 1.50325,0.16089 0.52405,0.271 0.36245,0.36651 -0.62012,0.36651 h -0.93135 l -0.21678,0.97579 c -0.11924,0.53669 -0.70477,3.19506 -1.30118,5.9075 l -1.08439,4.93171 h -4.31526 -4.31526 z m 19.70713,0.13879 c -0.25975,-0.079 -0.94869,-0.41156 -0.94878,-0.45797 -2e-5,-0.013 1.93374,-0.0237 4.29725,-0.0237 3.87608,0 4.30052,-0.0167 4.33025,-0.17077 0.0362,-0.18761 -5.65713,-12.69964 -6.01552,-13.22006 -0.12234,-0.17766 -0.42986,-0.57038 -0.68338,-0.87272 l -0.46094,-0.5497 0.50571,-0.25841 c 1.10096,-0.56256 2.16977,-1.49856 6.87397,-6.01979 l 4.89138,-4.70113 h 0.66199 c 1.21196,0 1.55451,-0.39616 -5.52653,6.39149 -3.70216,3.54878 -4.54313,4.27212 -5.71747,4.91771 l -0.60934,0.33499 0.52118,0.57025 c 0.28665,0.31364 0.63587,0.76745 0.77603,1.00846 0.4924,0.84661 5.97447,12.94557 5.91169,13.04714 -0.0756,0.12239 -8.40588,0.12635 -8.80749,0.004 z m -86.765769,-5.52216 c -0.606985,-0.34122 -0.818969,-0.80705 -0.748153,-1.64408 0.174946,-2.06791 2.200893,-3.22205 6.761149,-3.85169 1.21645,-0.16795 4.777702,-0.43972 4.846662,-0.36986 0.022,0.0223 0.0157,0.16725 -0.014,0.32209 -0.0523,0.27245 -0.0835,0.28371 -0.96648,0.3495 -6.520562,0.48582 -9.509919,1.86632 -9.509919,4.39173 0,0.27599 0.0463,0.62357 0.102875,0.77239 0.125376,0.32974 0.06775,0.33339 -0.472094,0.0299 z m -23.946485,-0.4819 c -0.25916,-0.0843 -0.328193,-0.73624 -0.09604,-0.90715 0.08283,-0.061 0.363111,-0.67141 0.62283,-1.35652 0.450722,-1.18893 0.464457,-1.25749 0.301568,-1.50608 -0.27394,-0.41808 -0.04689,-1.24972 0.803948,-2.9448 0.84185,-1.67718 1.186448,-2.77614 0.976098,-3.11296 -0.12103,-0.19379 -0.104204,-0.21001 0.217861,-0.21001 0.467642,0 0.602196,-0.16229 0.602196,-0.72633 0,-0.3865 0.09155,-0.61304 0.499922,-1.23711 0.455954,-0.69678 0.525325,-0.75889 0.788799,-0.70619 0.240404,0.0481 0.319744,0.004 0.472917,-0.26291 0.279109,-0.48632 0.66912,-0.51543 1.361068,-0.10156 0.313213,0.18735 0.569483,0.41498 0.569483,0.50586 0,0.23854 -0.215255,0.41842 -0.500714,0.41842 -0.164576,0 -0.307759,0.10584 -0.427239,0.31581 -0.09883,0.17369 -0.25091,0.32313 -0.33794,0.33209 -0.08703,0.009 -0.24071,0.0211 -0.341507,0.027 -0.102263,0.006 -0.404421,0.33717 -0.683572,0.74919 -0.403081,0.59496 -0.510957,0.85117 -0.555168,1.31864 l -0.05487,0.5802 -0.395592,-0.0309 c -0.400824,-0.0313 -0.490101,0.0525 -0.279846,0.26272 0.205169,0.20518 -0.269541,1.75314 -0.89927,2.93238 -0.909903,1.70392 -1.208992,2.81187 -0.866441,3.20975 0.122792,0.14263 0.08115,0.3367 -0.2901,1.35188 l -0.433485,1.18535 -0.421964,-0.009 c -0.232081,-0.005 -0.516907,-0.04 -0.632947,-0.0777 z M 167.01685,127.22303 c 0.0781,-0.3834 4.14948,-18.86009 4.35962,-19.78456 l 0.16299,-0.71705 0.59698,0.0314 c 0.45723,0.024 0.59243,0.0684 0.57753,0.18959 -0.0107,0.087 -1.0288,4.75106 -2.26243,10.36451 l -2.24295,10.20626 h -0.62541 -0.62539 z m -79.006151,-1.80406 c -0.239433,-0.11257 -0.459804,-0.24522 -0.489721,-0.29478 -0.02992,-0.0495 0.28855,-0.0969 0.707719,-0.10521 0.794337,-0.0157 1.256673,-0.15236 3.698531,-1.09285 2.11433,-0.81435 2.92515,-0.97733 4.90534,-0.98606 1.559891,-0.007 1.801491,0.0166 2.327111,0.22569 0.32258,0.12835 0.67861,0.30301 0.79118,0.38813 0.186661,0.14114 0.172241,0.14577 -0.16385,0.0527 -0.56488,-0.15649 -2.931751,-0.12198 -3.872391,0.0565 -0.93715,0.17777 -2.31845,0.63023 -4.19837,1.3752 -1.131259,0.44829 -1.372486,0.5061 -2.268063,0.54354 -0.831249,0.0348 -1.076411,0.007 -1.437486,-0.16278 z m -16.95313,-0.40246 c -0.03868,-0.0387 -0.07033,-0.15392 -0.07033,-0.25609 0,-0.114 -0.244539,-0.33431 -0.632947,-0.57026 -0.348122,-0.21147 -0.632947,-0.40027 -0.632947,-0.41956 0,-0.0193 0.188355,-0.01 0.418567,0.0211 l 0.418568,0.0561 0.07036,-0.46177 c 0.05788,-0.37986 0.170759,-0.55567 0.636344,-0.99114 0.311294,-0.29115 0.565981,-0.61036 0.565981,-0.70935 0,-0.099 -0.145768,-0.25538 -0.323942,-0.34751 -0.259677,-0.13429 -0.299637,-0.19679 -0.201457,-0.3151 0.06737,-0.0812 0.209907,-0.17532 0.316748,-0.20923 0.17579,-0.0558 1.158071,-1.57926 1.158071,-1.79611 0,-0.0498 -0.121484,-0.21725 -0.269962,-0.37223 l -0.269963,-0.28178 0.47623,-0.11991 c 0.436828,-0.11 0.482136,-0.15261 0.547688,-0.51518 0.03931,-0.21739 0.148236,-0.47048 0.242071,-0.56241 0.09383,-0.0919 0.333299,-0.47488 0.532139,-0.85101 0.382152,-0.72288 0.38403,-1.01543 0.0072,-1.11398 -0.315261,-0.0824 -0.288951,-0.55789 0.03087,-0.55789 0.307644,0 1.168441,-0.86416 1.388928,-1.39436 0.228494,-0.54946 0.204094,-0.78922 -0.100628,-0.98889 -0.39806,-0.26082 -0.324733,-0.42797 0.22054,-0.50271 1.32711,-0.18189 2.231369,-1.14451 1.664027,-1.77142 -0.160852,-0.17774 -0.153584,-0.21542 0.107696,-0.55798 0.154102,-0.20204 0.341538,-0.34382 0.416511,-0.31504 0.270437,0.10377 0.513647,-0.34964 0.597554,-1.11399 0.09795,-0.89225 0.397618,-1.3876 1.235228,-2.04178 0.479225,-0.37428 0.55829,-0.48686 0.55829,-0.79494 0,-0.28461 0.120112,-0.49571 0.580201,-1.01977 0.575592,-0.6556 0.690672,-0.95047 0.460701,-1.18044 -0.204842,-0.20485 -0.03178,-0.39415 0.487253,-0.53297 0.475259,-0.12711 0.497053,-0.1491 0.451988,-0.45611 -0.04105,-0.27967 0.01948,-0.38011 0.455278,-0.7555 0.465881,-0.4013 0.491631,-0.44864 0.352235,-0.64764 -0.220593,-0.31495 -0.20018,-0.34995 0.373734,-0.640771 0.523215,-0.26513 0.576245,-0.39419 0.306863,-0.74682 -0.05208,-0.0682 0.157773,-0.35311 0.535019,-0.72642 0.379346,-0.37539 0.598177,-0.67295 0.562764,-0.76524 -0.03188,-0.0831 -0.01055,-0.25461 0.04746,-0.38124 0.05798,-0.12663 0.158248,-0.45277 0.222829,-0.72474 0.06459,-0.27198 0.355759,-0.85959 0.647051,-1.3058 0.52639,-0.80636 0.56769,-0.89914 0.538859,-1.210584 -0.0083,-0.0894 0.128668,-0.26888 0.304332,-0.39875 0.37308,-0.27583 0.387173,-0.42314 0.162562,-1.69946 -0.08609,-0.4892 -0.137624,-0.90836 -0.114501,-0.93148 0.02311,-0.0231 0.165147,0.0386 0.315619,0.13724 0.317223,0.20785 0.496252,0.75216 0.754009,2.29245 0.15716,0.939084 0.15772,1.053284 0.0063,1.284274 -0.09137,0.13944 -0.255541,0.28191 -0.364841,0.3166 -0.136611,0.0434 -0.185284,0.13653 -0.155726,0.29811 0.02639,0.14429 -0.09916,0.45903 -0.325229,0.81523 -0.76883,1.21144 -0.888256,1.51038 -1.086411,2.7195 -0.04174,0.25475 -0.220434,0.48838 -0.677728,0.88613 -0.634792,0.552121 -0.742457,0.719501 -0.46281,0.719501 0.355442,0 0.151137,0.41714 -0.342846,0.70002 -0.275596,0.15782 -0.520567,0.30195 -0.544387,0.32028 -0.02382,0.0183 0.04739,0.13372 0.158236,0.25643 0.200697,0.22217 0.199347,0.2251 -0.323478,0.69877 -0.428758,0.38845 -0.519248,0.53079 -0.493498,0.77628 0.02904,0.27681 -0.0066,0.31022 -0.450763,0.42205 -0.399421,0.10058 -0.482306,0.16354 -0.482306,0.36642 0,0.13474 0.04747,0.27432 0.105491,0.31018 0.214675,0.13268 0.09,0.37806 -0.527455,1.03812 -0.521717,0.55772 -0.632947,0.74088 -0.632947,1.04226 0,0.30898 -0.08147,0.43433 -0.525831,0.80902 -0.850469,0.71713 -1.054753,1.05475 -1.204656,1.99094 -0.155378,0.9704 -0.207026,1.07859 -0.517423,1.08375 -0.139533,0.002 -0.347214,0.15681 -0.524049,0.38982 -0.249148,0.3283 -0.268854,0.39945 -0.131863,0.47611 0.220276,0.12327 0.204009,0.81175 -0.0259,1.0968 -0.234285,0.29045 -0.711822,0.52834 -1.240827,0.61813 -0.230066,0.0391 -0.501389,0.0938 -0.602924,0.12164 -0.268624,0.0737 -0.232925,0.4925 0.05275,0.61877 0.183523,0.0811 0.229792,0.17651 0.20402,0.42061 -0.07418,0.70257 -0.891347,1.69776 -1.44354,1.75802 -0.258032,0.0282 -0.316474,0.0832 -0.316474,0.29827 0,0.17164 0.08218,0.29979 0.23533,0.36699 0.129437,0.0568 0.260215,0.16809 0.290617,0.24732 0.07912,0.20619 -0.69027,1.62235 -0.913057,1.68061 -0.102601,0.0268 -0.180495,0.1267 -0.1731,0.22194 0.04892,0.63021 -0.0078,0.72526 -0.508415,0.85131 l -0.488434,0.12298 0.209009,0.23239 c 0.114954,0.12781 0.240678,0.28859 0.279383,0.35731 0.110079,0.19539 -0.856273,1.70197 -1.208506,1.88411 -0.375972,0.19442 -0.384095,0.28996 -0.04363,0.51304 0.40957,0.26836 0.334154,0.58264 -0.255488,1.06462 -0.447726,0.36597 -0.525821,0.48845 -0.588599,0.92304 -0.0546,0.378 -0.117464,0.50109 -0.25589,0.50109 -0.100923,0 -0.215149,-0.0316 -0.253822,-0.0703 z m 54.827951,-4.64397 c 0.0412,-0.72483 0.028,-1.38935 -0.0315,-1.5888 -0.11881,-0.39855 -0.0524,-0.42222 0.47834,-0.17038 0.4653,0.2208 0.67062,0.62476 0.67062,1.31946 0,0.5345 -0.0199,0.57193 -0.59414,1.11933 l -0.59415,0.56634 z m -77.519912,-1.20327 c 0.03928,-0.0636 0.01225,-0.2261 -0.06007,-0.36122 -0.11224,-0.20972 -0.09862,-0.29883 0.09305,-0.60896 0.123491,-0.19982 0.224528,-0.48824 0.224528,-0.64095 0,-0.17647 0.05766,-0.27765 0.158237,-0.27765 0.11252,0 0.158242,-0.11429 0.158257,-0.39559 1.1e-5,-0.21757 0.0915,-0.96524 0.203313,-1.66148 0.111812,-0.69625 0.236031,-1.53951 0.276046,-1.87393 0.04001,-0.33442 0.153756,-0.71419 0.252761,-0.84393 0.131287,-0.17205 0.212361,-0.62136 0.299532,-1.66003 0.06574,-0.78327 0.309186,-2.77705 0.540996,-4.43062 0.552635,-3.94212 0.642729,-4.88711 0.642221,-6.736241 -6.33e-4,-2.42632 -0.320664,-3.97524 -1.218665,-5.898824 -0.54233,-1.16172 -0.461679,-1.18139 0.20203,-0.0493 0.722632,1.232614 1.202547,2.336024 1.489213,3.423964 0.683829,2.59523 0.634715,4.652171 -0.260147,10.895491 -0.232851,1.62456 -0.454149,3.5234 -0.491771,4.21964 -0.06038,1.11728 -0.09751,1.30091 -0.316286,1.56409 -0.14723,0.17712 -0.247049,0.43412 -0.245835,0.63295 0.0011,0.18411 -0.101081,1.02308 -0.22712,1.86437 l -0.229165,1.52962 -0.693098,0.71207 c -0.617335,0.63423 -0.996504,0.91765 -0.798031,0.59651 z m 99.903952,-3.90421 c -0.34257,-0.05 -0.91222,-0.23467 -1.26589,-0.41041 -0.35366,-0.17575 -0.52434,-0.29213 -0.37929,-0.25864 0.14505,0.0335 0.69663,0.0877 1.22574,0.12046 1.95246,0.12085 3.9742,-0.63713 5.37464,-2.01503 0.99666,-0.98063 1.34215,-1.67839 1.39868,-2.82487 0.0347,-0.70403 0.003,-0.89145 -0.24032,-1.42413 -0.15416,-0.33737 -0.43201,-0.77304 -0.61743,-0.96816 l -0.33714,-0.35475 0.45838,0.23016 c 0.61485,0.30871 1.35325,1.06484 1.63263,1.67178 0.17399,0.37802 0.22792,0.69661 0.22754,1.34436 0,0.74252 -0.0431,0.93549 -0.34037,1.53934 -0.18694,0.37972 -0.53247,0.90919 -0.76786,1.1766 -0.92937,1.05582 -2.71607,1.94697 -4.36274,2.176 -0.91592,0.1274 -1.11657,0.12712 -2.00657,-0.003 z"
         id="path3748"
         inkscape:connector-curvature="0" />
    </g>
  </g>
</svg>
